<?xml version="1.0" encoding="UTF-8" standalone="no"?>
<!-- Created with Inkscape (http://www.inkscape.org/) -->

<svg
   version="1.1"
   id="svg1"
   width="579.46802"
   height="509.147"
   viewBox="0 0 579.46801 509.147"
   sodipodi:docname="cm_logo_black.svg"
   inkscape:version="1.4.2 (f4327f4, 2025-05-13)"
   xmlns:inkscape="http://www.inkscape.org/namespaces/inkscape"
   xmlns:sodipodi="http://sodipodi.sourceforge.net/DTD/sodipodi-0.dtd"
   xmlns="http://www.w3.org/2000/svg"
   xmlns:svg="http://www.w3.org/2000/svg">
  <defs
     id="defs1" />
  <sodipodi:namedview
     id="namedview1"
     pagecolor="#ffffff"
     bordercolor="#000000"
     borderopacity="0.25"
     inkscape:showpageshadow="2"
     inkscape:pageopacity="0.0"
     inkscape:pagecheckerboard="0"
     inkscape:deskcolor="#d1d1d1"
     showgrid="false"
     inkscape:zoom="1.3160983"
     inkscape:cx="405.36487"
     inkscape:cy="338.50056"
     inkscape:window-width="2560"
     inkscape:window-height="1369"
     inkscape:window-x="2552"
     inkscape:window-y="-7"
     inkscape:window-maximized="1"
     inkscape:current-layer="svg1" />
  <g
     id="g4"
     inkscape:label="CM logo"
     style="display:inline">
    <path
       style="display:inline;fill:#000000;stroke-width:1"
       d="m 301.47397,505.82892 c -0.0389,-1.82495 -0.0777,-68.51327 -0.0862,-148.1963 -0.0127,-119.58578 0.21789,-145.10486 1.32079,-146.17663 0.73489,-0.71414 9.02448,-6.43967 18.42132,-12.72337 29.34342,-19.62207 57.35857,-31.95889 85.41485,-37.61352 5.77499,-1.16393 23.325,-3.92907 39,-6.14477 35.00523,-4.94805 50.00955,-7.92399 62.54962,-12.40598 14.09439,-5.03753 23.72046,-10.83883 32.59894,-19.64625 6.22752,-6.17769 8.49527,-9.33838 12.19735,-17.00001 11.47307,-23.744194 9.88466,-47.462975 -6.32709,-94.478818 -2.3294,-6.7555222 -3.4923,-11.42383438 -2.78719,-11.18879427 1.90558,0.63519029 14.12727,19.14975927 19.59736,29.68793427 6.691,12.890286 11.53521,26.338403 14.19908,39.418408 1.89354,9.297545 2.13969,13.018096 1.72022,26.000012 -0.40786,12.622598 -0.93923,16.651158 -3.18538,24.149828 -7.732,25.81287 -25.39455,44.27086 -52.39581,54.75549 -10.8315,4.20588 -32.99999,9.08736 -60.16709,13.2487 -12.925,1.9798 -24.51252,3.80987 -25.75001,4.06679 l -2.25,0.46714 -0.0494,111.231 -0.0494,111.23101 -7.99893,5.5 c -4.39942,3.025 -11.88869,8.31249 -16.64284,11.75001 -4.75414,3.43749 -9.00741,6.24999 -9.45169,6.24999 -0.44428,0 -0.85148,-32.28749 -0.88446,-71.75004 l -0.0767,-91.75009 -33.72675,95.76038 c 0,0 -9.27695,-17.25967 -25.26572,-52.59221 l -5.3542,-11.8319 -0.5,89.56982 -0.5,89.5698 -13.5,9.78543 c -7.42501,5.38198 -14.9625,10.8181 -16.75,12.08023 l -3.25,2.29481 z m 98.63039,-305.81824 c 0,0 -16.10643,5.81927 -24.81076,9.88382 -10.00639,4.67254 -37.19758,20.41522 -38.27622,22.16049 -0.29553,0.47819 1.6563,5.72634 4.33739,11.66257 2.6811,5.93624 9.53495,21.46976 15.23078,34.51894 l 10.35605,23.7258 z"
       id="path3"
       sodipodi:nodetypes="sssssssssssssssssscccssssccscccsscscsssscc"
       inkscape:label="M" />
    <path
       style="display:inline;fill:#000000;stroke-width:1"
       d="M 236.96266,480.03907 C 191.19079,447.05214 182.5171,440.81931 164.83628,428.20978 L 145.6278,414.5108 145.5863,303.26073 c -0.0228,-61.18753 -0.30155,-111.25005 -0.61934,-111.25005 -0.31779,0 -14.24552,-2.2521 -30.95051,-5.00467 C 67.59072,179.3562 53.244588,175.07334 36.476537,163.85737 18.453225,151.80176 7.1999237,135.01826 1.8569432,112.22466 -0.9565871,100.22194 -0.52507705,79.623275 2.8263233,65.950259 7.3487737,47.499561 14.761664,31.178963 26.463796,13.908814 34.788806,1.6226584 36.386387,-0.48684261 36.933997,0.08359765 c 0.22544,0.2348501 -1.81872,7.17700325 -4.542601,15.42700735 -15.320461,46.402292 -16.413501,67.504122 -4.73241,91.362755 9.089121,18.56455 29.283703,32.66654 56.659395,39.5656 12.309622,3.10219 21.005319,4.58493 55.834939,9.52068 32.3865,4.58954 42.43228,6.6536 58.39146,11.99751 21.60005,7.23273 44.52784,19.49648 68.00001,36.37225 l 11.5,8.26814 0.26085,42.2066 c 0.15087,24.41241 -0.11706,42.20658 -0.63552,42.20658 -0.49301,0 -5.7854,-2.58962 -11.76086,-5.75471 -5.97546,-3.16507 -13.4509,-7.10259 -16.6121,-8.75 l -5.74763,-2.9953 -0.002,-23.70113 -0.002,-23.70115 -9.25,-6.40166 c -11.13719,-7.70775 -23.12067,-14.25173 -35.21593,-19.23083 -7.20445,-2.96576 -16.9198,-6.39537 -18.28407,-6.45444 -0.1375,-0.006 -0.25,44.03645 -0.25,97.87202 v 97.88284 l 6.25,4.57889 c 18.14388,13.29261 55.34971,39.63042 56,39.64208 0.4125,0.007 0.75,-14.88468 0.75,-33.09353 0,-26.43137 0.25724,-33.00829 1.27577,-32.61744 0.70167,0.26925 8.57668,3.78308 17.50001,7.80849 l 16.22348,7.31897 v 59.79851 c 0,32.88917 -0.75,59.71532 -0.75,59.71532 -38.16992,-27.23988 -24.60595,-16.76203 -40.83213,-28.88858 z"
       id="path2"
       sodipodi:nodetypes="cscsssssssssssssscsssscccsssscscssccscc"
       inkscape:label="C" />
    <path
       style="display:inline;fill:#d87c2a;fill-opacity:1;stroke:none;stroke-width:3.77953;stroke-dasharray:none"
       d="m 242.234,103.7268 c 0,0 20.6598,-10.659792 28.75,-18.749995 8.09021,-8.090204 18.75,-28.75 18.75,-28.75 0,0 10.6598,20.659796 18.75,28.75 8.09021,8.090203 28.75,18.749995 28.75,18.749995 0,0 -20.65979,10.6598 -28.75,18.75 -8.0902,8.09021 -18.75,28.75001 -18.75,28.75001 0,0 -10.65979,-20.6598 -18.75,-28.75001 -8.0902,-8.0902 -28.75,-18.75 -28.75,-18.75 z"
       id="path7"
       sodipodi:nodetypes="cscscscsc"
       inkscape:label="diamond" />
  </g>
</svg>
