<svg xmlns="http://www.w3.org/2000/svg" xmlns:xlink="http://www.w3.org/1999/xlink" viewBox="0 0 1000 360">
  <defs><path id="mark" d="M 0 -80 L -80 8 C -98 10 -112 2 -122 -14 C -132 -32 -135 -54 -130 -74 C -125 -52 -119 -34 -108 -20 C -97 -6 -85 3 -68 6 L -62 20 L 0 -52 Z M 0 -80 L 80 8 C 98 10 112 2 122 -14 C 132 -32 135 -54 130 -74 C 125 -52 119 -34 108 -20 C 97 -6 85 3 68 6 L 62 20 L 0 -52 Z M -80 44 H 80 V 66 H -80 Z"/><path id="keystone" d="M 0 -122 L 14 -106 L 0 -90 L -14 -106 Z"/></defs>
  <g transform="translate(170 190) scale(0.95)">
    <use xlink:href="#mark" fill="#2A2926"/>
    <use xlink:href="#keystone" fill="#B98A2F"/>
  </g>
  <g font-family="Georgia, &#39;Times New Roman&#39;, serif">
    <text x="360" y="180" font-size="60" font-weight="bold" letter-spacing="3" fill="#2A2926">CM</text>
    <text x="500" y="180" font-size="60" font-weight="bold" letter-spacing="3" fill="#76302C">OXHORN</text>
    <line x1="363" y1="208" x2="800" y2="208" stroke="#B98A2F" stroke-width="2"/>
    <text x="363" y="242" font-size="19" font-weight="bold" letter-spacing="6.2" fill="#2A2926">CONSTRUCTION COMPANY</text>
  </g>
</svg>
